<svg xmlns="http://www.w3.org/2000/svg" width="1280" height="720" viewBox="0 0 1280 720">
  <defs>
    <linearGradient id="bg" x1="0" y1="0" x2="1" y2="1">
      <stop offset="0%" stop-color="#0b1226"/>
      <stop offset="100%" stop-color="#101b34"/>
    </linearGradient>
    <linearGradient id="line" x1="0" y1="0" x2="1" y2="0">
      <stop offset="0%" stop-color="#5ce1ff"/>
      <stop offset="100%" stop-color="#a78bfa"/>
    </linearGradient>
  </defs>
  <rect width="1280" height="720" fill="url(#bg)"/>
  <text x="56" y="76" fill="#edf2ff" font-size="42" font-family="Arial, sans-serif" font-weight="700">MutthaSales KPI Dashboard</text>
  <rect x="56" y="110" width="1168" height="1" fill="#2f3b5e"/>
  <rect x="56" y="148" width="280" height="150" rx="14" fill="#15213f"/>
  <rect x="360" y="148" width="280" height="150" rx="14" fill="#15213f"/>
  <rect x="664" y="148" width="280" height="150" rx="14" fill="#15213f"/>
  <rect x="968" y="148" width="256" height="150" rx="14" fill="#15213f"/>
  <rect x="56" y="326" width="760" height="324" rx="14" fill="#15213f"/>
  <rect x="838" y="326" width="386" height="324" rx="14" fill="#15213f"/>
  <path d="M100 560 C 260 520, 390 580, 520 500 C 600 460, 700 470, 760 430" stroke="url(#line)" stroke-width="6" fill="none"/>
  <circle cx="760" cy="430" r="7" fill="#5ce1ff"/>
  <text x="92" y="362" fill="#9aabcf" font-size="20" font-family="Arial, sans-serif">Revenue Trend</text>
  <text x="860" y="362" fill="#9aabcf" font-size="20" font-family="Arial, sans-serif">Channel Performance</text>
</svg>
